PathFileType	4	(X/Y/Z)	C:/Users/opensim2020/Desktop/walking_exp_matlab/subject06_walking18_straight_04.trc	
DataRate	CameraRate	NumFrames	NumMarkers	Units	OrigDataRate	OrigDataStartFrame	OrigNumFrames	
100.00	100.00	8	47	mm	100.00	4572	409	
Frame#	Time	LFHD			RFHD			LBHD			RBHD			C7			T10			CLAV			STRN			RBAK			LSHO			LUPA			LELB			LFRM			LWRA			LWRB			LFIN			RSHO			RUPA			RELB			RFRM			RWRA			RWRB			RFIN			LASI			RASI			LPSI			RPSI			LTHI			LKNE			LTIB			LANK			LHEE			LTOE			RTHI			RKNE			RTIB			RANK			RHEE			RTOE			*39			*40			*41			*42			*43			*44			*45			*46			
		X1	Y1	Z1	X2	Y2	Z2	X3	Y3	Z3	X4	Y4	Z4	X5	Y5	Z5	X6	Y6	Z6	X7	Y7	Z7	X8	Y8	Z8	X9	Y9	Z9	X10	Y10	Z10	X11	Y11	Z11	X12	Y12	Z12	X13	Y13	Z13	X14	Y14	Z14	X15	Y15	Z15	X16	Y16	Z16	X17	Y17	Z17	X18	Y18	Z18	X19	Y19	Z19	X20	Y20	Z20	X21	Y21	Z21	X22	Y22	Z22	X23	Y23	Z23	X24	Y24	Z24	X25	Y25	Z25	X26	Y26	Z26	X27	Y27	Z27	X28	Y28	Z28	X29	Y29	Z29	X30	Y30	Z30	X31	Y31	Z31	X32	Y32	Z32	X33	Y33	Z33	X34	Y34	Z34	X35	Y35	Z35	X36	Y36	Z36	X37	Y37	Z37	X38	Y38	Z38	X39	Y39	Z39	X40	Y40	Z40	X41	Y41	Z41	X42	Y42	Z42	X43	Y43	Z43	X44	Y44	Z44	X45	Y45	Z45	X46	Y46	Z46	X47	Y47	Z47	

52	0.510	-883.70917	808.65771	1661.86255	-1015.63904	801.25452	1660.00085	-894.19916	938.65521	1600.83789	-1023.37885	929.50061	1604.04492	-955.88928	928.11176	1450.01306	-977.49060	955.60938	1122.13110	-960.17419	816.85657	1376.10315	-964.77087	774.15765	1200.29797	-1044.83118	997.16138	1283.54858	-796.55548	869.46246	1400.32251	-729.43359	885.49146	1197.90552	-719.20355	898.90009	1086.16101	-696.46576	875.79974	937.49481	-734.69495	810.28400	824.83502	-700.79431	873.85535	818.57202	-698.85254	829.87671	737.85614	-1119.07483	861.17841	1414.62231	-1217.24121	893.59381	1220.43054	-1232.05286	883.28558	1098.91052	-1250.37537	855.04669	982.58691	-1217.63757	778.14117	852.71631	-1259.21265	831.24011	846.96643	-1259.62012	785.43274	775.86237	-883.43951	770.45276	963.19482	-1101.41589	788.15106	968.47656	-899.86786	930.09375	992.19586	-1067.55725	936.79352	995.01080	-814.49628	816.67157	651.90088	-835.84949	798.55695	490.67380	-841.03845	795.57275	234.35233	-882.52173	770.68451	63.63546	-929.96094	807.06244	47.86631	-886.48944	624.30664	40.70902	-1150.57996	870.42871	628.42792	-1132.79663	878.46747	501.18130	-1118.41284	1053.07446	298.24496	-1074.55444	1172.41907	156.15512	-1027.68323	1215.34863	159.95012	-1076.93701	1077.47180	35.80466	-945.64545	907.64166	1699.07813																					 
53	0.520	-881.70874	803.11774	1662.06262	-1013.71082	795.88605	1660.40417	-892.12939	933.06555	1600.87122	-1021.40375	924.00806	1604.17065	-953.98071	922.37683	1450.19373	-975.51105	949.97931	1122.30359	-958.50464	811.04767	1376.34985	-963.20941	768.42010	1200.46387	-1042.72339	991.57953	1283.71838	-794.76068	863.40460	1400.58105	-727.41370	878.74084	1198.14587	-717.02551	891.61163	1086.35522	-693.96460	867.38794	937.92688	-732.80188	801.18640	825.77887	-698.80969	864.41797	818.87592	-696.91760	819.93744	738.59094	-1117.28369	855.83856	1414.90930	-1215.57642	888.20734	1220.73999	-1230.48999	877.90497	1099.23743	-1248.79187	849.42957	982.98596	-1215.92126	772.23553	853.34576	-1257.68872	825.28705	847.50940	-1258.25366	779.29883	776.55524	-882.09326	764.52991	963.24396	-1100.04333	783.31927	968.59113	-898.25519	924.33661	992.42950	-1065.93640	931.69299	994.96985	-813.84497	811.10443	652.36780	-834.85504	794.61084	490.74786	-840.61462	793.46002	234.25301	-882.67627	770.11493	63.60172	-929.97375	806.74811	48.00460	-887.04773	623.88538	40.12596	-1150.45679	861.86316	628.30365	-1133.41882	867.40649	500.82224	-1117.96802	1044.23254	301.12662	-1073.50500	1165.83398	161.37009	-1026.81140	1208.58118	167.15689	-1076.59460	1075.73889	37.34135	-943.55414	902.22687	1699.17090																					 
54	0.530	-879.83649	797.55243	1662.23193	-1011.86658	790.54504	1660.67383	-890.19812	927.44745	1600.76611	-1019.46533	918.62964	1604.25000	-952.10620	916.65204	1450.39966	-973.66364	944.51337	1122.45496	-956.84644	805.44049	1376.47290	-961.71973	762.86761	1200.49219	-1040.64807	986.23639	1283.88721	-793.00616	857.30011	1400.67932	-725.37854	871.94244	1198.22510	-714.79742	884.28162	1086.38159	-692.14746	858.75134	938.03235	-730.64948	791.72046	826.59467	-696.55359	855.07788	819.11365	-694.87195	809.81555	739.24219	-1115.55591	850.44714	1414.97473	-1213.90234	883.00287	1220.87964	-1228.96008	872.60095	1099.40234	-1247.30518	843.79449	983.26648	-1214.29163	766.32361	853.83350	-1256.04883	819.13623	847.73541	-1256.65759	772.95612	777.06171	-880.97443	758.59198	963.34564	-1098.93103	778.22528	969.11731	-896.77838	918.91876	992.69562	-1064.40857	926.77051	994.80206	-813.04791	805.78772	652.77307	-833.84875	790.72418	490.83511	-840.04901	791.69684	234.27625	-882.68518	769.71857	63.52477	-929.82715	806.35992	47.94488	-887.45386	623.58533	39.64308	-1150.32068	853.09747	628.13177	-1133.96045	856.17310	500.51456	-1117.66565	1034.65332	303.97778	-1072.98145	1159.22205	167.31912	-1025.86572	1201.09607	174.27719	-1076.38538	1073.57751	39.09756	-941.50854	896.88123	1699.17444																					 
55	0.540	-878.08337	792.12561	1662.33862	-1010.08728	785.18903	1660.92761	-888.28839	921.85187	1600.62219	-1017.56116	913.15302	1604.22974	-950.22760	910.96722	1450.60168	-971.87616	939.14301	1122.55090	-955.30487	799.80719	1376.52502	-960.31512	757.49017	1200.45862	-1038.52625	981.04370	1284.01855	-791.22046	851.15900	1400.69128	-723.35742	865.05487	1198.18591	-712.54279	876.80157	1086.29272	-689.60803	850.23370	938.33228	-728.69409	782.52563	827.21100	-694.36462	845.54645	819.28461	-692.88635	799.63586	739.74420	-1113.94055	845.18854	1414.97668	-1212.19397	878.01178	1220.84680	-1227.48059	867.47858	1099.46606	-1245.80444	838.31268	983.43701	-1212.82593	760.38983	854.30090	-1254.73291	813.18109	848.14899	-1255.32861	766.63434	777.62366	-879.92615	752.85010	963.45856	-1097.90063	773.56061	969.26782	-895.31671	913.37640	992.83820	-1062.96997	922.12537	994.50824	-812.20209	800.67450	653.19385	-832.77576	787.07300	490.94089	-839.46344	790.18390	234.29207	-882.60797	769.37354	63.48388	-929.62323	806.12158	47.92944	-887.85773	623.30981	39.24124	-1150.14050	844.29108	627.92651	-1134.43127	844.58160	500.19467	-1117.45935	1024.28125	306.49118	-1072.15942	1151.41101	172.81534	-1025.01477	1192.93958	181.42793	-1075.97131	1070.72046	41.19212	-939.52795	891.54846	1699.10327																					 
56	0.550	-876.39154	786.60236	1662.35706	-1008.43036	779.93304	1661.11841	-886.42841	916.21381	1600.42285	-1015.66663	907.71216	1604.15271	-948.39026	905.37292	1450.84119	-970.19318	934.07037	1122.65491	-953.82532	794.32153	1376.54163	-959.03113	752.27698	1200.35815	-1036.44678	975.94849	1284.23352	-789.53162	845.00433	1400.61377	-721.37012	858.05096	1198.01331	-710.25311	869.18402	1086.15808	-687.37115	841.50659	938.32874	-726.51379	772.87042	827.81360	-692.22827	836.00427	819.28912	-690.96271	789.42523	740.13281	-1112.36182	840.12640	1414.95227	-1210.47742	873.19080	1220.74768	-1225.96777	862.41925	1099.43347	-1244.32349	832.90277	983.49847	-1211.40186	754.50098	854.70374	-1253.33032	807.38129	848.40753	-1254.02686	760.34589	778.09265	-879.06580	747.09534	963.60474	-1096.98181	768.86615	969.38623	-893.94867	907.85809	992.97382	-1061.67346	917.43213	994.15900	-811.36035	795.71301	653.57239	-831.67834	783.71716	490.97772	-838.78326	788.58942	234.28717	-882.51569	769.07001	63.43231	-929.46704	806.20465	48.19625	-888.29138	623.05023	38.90371	-1149.94446	835.45129	627.76630	-1134.76697	833.01587	500.10007	-1117.37000	1013.35706	308.89597	-1071.48779	1143.13379	178.27556	-1024.16248	1184.09998	188.28487	-1075.56836	1067.17017	43.15710	-937.66132	886.22211	1699.06458																					 
57	0.560	-874.76141	780.97827	1662.40808	-1006.82764	774.64844	1661.22620	-884.58704	910.59985	1600.26379	-1013.89526	902.43109	1604.13171	-946.54852	899.85858	1451.01282	-968.58588	928.97906	1122.77710	-952.43933	788.88531	1376.53772	-957.81836	747.19293	1200.23706	-1034.42773	970.99683	1284.48535	-787.94812	838.86090	1400.48584	-719.45026	851.00391	1197.86938	-708.01447	861.57062	1085.95166	-685.39398	832.53381	938.26910	-724.81042	763.85547	828.38342	-689.92303	826.37531	819.39264	-689.10400	779.22327	740.44092	-1110.80615	834.94373	1414.85278	-1208.75220	868.56470	1220.61353	-1224.47437	857.42084	1099.37036	-1242.90454	827.57550	983.56970	-1210.08997	748.74384	855.13348	-1251.92993	801.59802	848.59998	-1252.81384	754.24164	778.57312	-878.30280	741.58990	963.77814	-1096.16284	764.24969	969.49780	-892.66846	902.49463	993.11829	-1060.37329	912.75317	993.79712	-810.47949	790.95178	653.73389	-830.63861	780.61597	491.02826	-838.11676	787.11658	234.23013	-882.41803	768.76898	63.37328	-929.24878	806.20856	48.34774	-888.71918	622.84308	38.59804	-1149.77649	826.48083	627.72498	-1134.93909	821.28528	500.11130	-1117.25073	1002.03058	311.19766	-1070.81030	1134.26514	183.53603	-1023.19922	1174.69849	194.91185	-1075.20862	1062.92456	45.24706	-935.78882	880.82220	1698.96313																					 
58	0.570	-873.22668	775.41528	1662.34204	-1005.29736	769.31494	1661.32129	-882.79871	905.01630	1600.14404	-1012.41040	897.30743	1604.09998	-944.80151	894.47668	1451.20166	-967.10260	923.98627	1122.88647	-951.10541	783.57764	1376.59082	-956.68469	742.20386	1200.15259	-1032.49854	966.19678	1284.73108	-786.43427	832.75873	1400.35754	-717.60901	843.82587	1197.71155	-705.99164	853.28705	1085.86011	-683.00330	823.75116	938.41235	-722.91541	754.37170	828.88690	-687.71729	816.76611	819.31879	-687.20703	768.93207	740.86560	-1109.40552	830.32147	1414.96143	-1207.06445	864.00848	1220.54736	-1222.98059	852.52557	1099.39111	-1241.44910	822.32935	983.68146	-1208.86707	743.00500	855.57245	-1250.41931	795.89722	848.68323	-1251.63794	748.21252	779.08374	-877.50909	736.25470	964.02673	-1095.38599	759.71448	969.70532	-891.43384	897.28705	993.30011	-1059.16931	908.13916	993.46661	-809.59674	786.51117	653.98950	-829.63055	777.74896	490.99796	-837.42902	785.60864	234.18571	-882.36005	768.52850	63.31576	-929.11432	806.25037	48.55939	-888.98602	622.68671	38.35114	-1149.50525	817.44379	627.76385	-1134.92517	809.55414	500.34100	-1117.04822	990.51184	313.50574	-1070.15222	1125.02673	188.65289	-1022.49506	1164.89490	201.07111	-1074.90491	1057.88916	47.67886	-934.06195	875.46295	1698.92590																					 
59	0.580	-871.77216	769.91919	1662.29297	-1003.86481	764.04395	1661.36133	-881.10840	899.45789	1600.08618	-1010.43988	891.78973	1604.13025	-943.13904	889.33594	1451.33191	-965.71558	919.12292	1123.05762	-949.92786	778.58185	1376.50476	-955.69580	737.31812	1200.14172	-1030.69531	961.42627	1284.95654	-785.05591	826.75311	1400.22583	-715.81415	836.58276	1197.56921	-703.59308	845.84711	1085.68335	-681.06079	814.64941	938.37518	-721.13959	745.08276	829.44177	-685.35291	807.00507	819.29218	-685.43365	758.79059	741.25537	-1108.05566	825.69495	1415.07678	-1205.46716	859.54199	1220.54333	-1221.46289	847.75159	1099.43762	-1240.00366	817.23901	983.84344	-1207.75183	737.40076	856.07593	-1248.99951	790.43921	848.90088	-1250.50598	742.29340	779.64111	-876.72711	731.00391	964.35529	-1094.58118	755.22107	969.85095	-890.22681	892.19214	993.46686	-1057.94617	903.55212	993.16772	-808.73407	782.43420	654.12317	-828.62799	775.14050	490.93024	-836.84363	784.31927	234.15204	-882.32111	768.32410	63.27393	-929.01074	806.29736	48.68982	-888.95978	622.42773	38.35390	-1149.19312	808.24957	627.96808	-1134.67505	797.67358	500.73993	-1117.06494	978.72888	315.60867	-1069.40186	1115.48425	193.39513	-1021.40289	1155.06018	206.81862	-1075.02295	1051.74573	50.64521	-932.35376	869.99103	1698.90649																					 
